<mxfile host="app.diagrams.net" modified="2023-03-20T09:36:06.314Z" agent="5.0 (Windows NT 10.0; Win64; x64) AppleWebKit/537.36 (KHTML, like Gecko) Chrome/111.0.0.0 Safari/537.36" etag="PoEOgSCX-njrxcTJMT0s" version="21.0.8" type="github">
  <diagram name="Page-1" id="f88M550kvle-WTcgTjd2">
    <mxGraphModel dx="951" dy="465" grid="1" gridSize="10" guides="1" tooltips="1" connect="1" arrows="1" fold="1" page="1" pageScale="1" pageWidth="850" pageHeight="1100" math="0" shadow="0">
      <root>
        <mxCell id="0" />
        <mxCell id="1" parent="0" />
        <mxCell id="BGHaj4Kj2rnMo7OcjPdP-8" value="&lt;b style=&quot;&quot;&gt;Provisioning &lt;br&gt;Type&lt;/b&gt;" style="strokeWidth=2;html=1;shape=mxgraph.flowchart.decision;whiteSpace=wrap;" vertex="1" parent="1">
          <mxGeometry x="355" y="250" width="140" height="110" as="geometry" />
        </mxCell>
        <mxCell id="BGHaj4Kj2rnMo7OcjPdP-12" value="" style="edgeStyle=orthogonalEdgeStyle;rounded=0;orthogonalLoop=1;jettySize=auto;html=1;" edge="1" parent="1" source="BGHaj4Kj2rnMo7OcjPdP-10" target="BGHaj4Kj2rnMo7OcjPdP-11">
          <mxGeometry relative="1" as="geometry" />
        </mxCell>
        <mxCell id="BGHaj4Kj2rnMo7OcjPdP-10" value="&lt;font size=&quot;1&quot; style=&quot;&quot;&gt;&lt;b style=&quot;font-size: 12px;&quot;&gt;Start&lt;/b&gt;&lt;/font&gt;" style="strokeWidth=2;html=1;shape=mxgraph.flowchart.start_1;whiteSpace=wrap;" vertex="1" parent="1">
          <mxGeometry x="375" y="100" width="100" height="40" as="geometry" />
        </mxCell>
        <mxCell id="BGHaj4Kj2rnMo7OcjPdP-13" value="" style="edgeStyle=orthogonalEdgeStyle;rounded=0;orthogonalLoop=1;jettySize=auto;html=1;" edge="1" parent="1" source="BGHaj4Kj2rnMo7OcjPdP-11" target="BGHaj4Kj2rnMo7OcjPdP-8">
          <mxGeometry relative="1" as="geometry" />
        </mxCell>
        <mxCell id="BGHaj4Kj2rnMo7OcjPdP-11" value="&lt;font size=&quot;1&quot;&gt;&lt;b style=&quot;font-size: 12px;&quot;&gt;Query AMP&lt;/b&gt;&lt;/font&gt;" style="rounded=1;whiteSpace=wrap;html=1;absoluteArcSize=1;arcSize=0;strokeWidth=2;" vertex="1" parent="1">
          <mxGeometry x="365" y="170" width="120" height="50" as="geometry" />
        </mxCell>
        <mxCell id="BGHaj4Kj2rnMo7OcjPdP-25" style="edgeStyle=orthogonalEdgeStyle;rounded=0;orthogonalLoop=1;jettySize=auto;html=1;entryX=0.5;entryY=0;entryDx=0;entryDy=0;" edge="1" parent="1" source="BGHaj4Kj2rnMo7OcjPdP-14" target="BGHaj4Kj2rnMo7OcjPdP-17">
          <mxGeometry relative="1" as="geometry" />
        </mxCell>
        <mxCell id="BGHaj4Kj2rnMo7OcjPdP-14" value="&lt;b&gt;source_type = project&lt;/b&gt;" style="text;html=1;strokeColor=none;fillColor=none;align=center;verticalAlign=middle;whiteSpace=wrap;rounded=0;" vertex="1" parent="1">
          <mxGeometry x="220" y="290" width="130" height="30" as="geometry" />
        </mxCell>
        <mxCell id="BGHaj4Kj2rnMo7OcjPdP-24" style="edgeStyle=orthogonalEdgeStyle;rounded=0;orthogonalLoop=1;jettySize=auto;html=1;entryX=0.5;entryY=0;entryDx=0;entryDy=0;" edge="1" parent="1" source="BGHaj4Kj2rnMo7OcjPdP-15" target="BGHaj4Kj2rnMo7OcjPdP-20">
          <mxGeometry relative="1" as="geometry" />
        </mxCell>
        <mxCell id="BGHaj4Kj2rnMo7OcjPdP-15" value="&lt;b&gt;source_type = dataset&lt;/b&gt;" style="text;html=1;strokeColor=none;fillColor=none;align=center;verticalAlign=middle;whiteSpace=wrap;rounded=0;" vertex="1" parent="1">
          <mxGeometry x="495" y="290" width="130" height="30" as="geometry" />
        </mxCell>
        <mxCell id="BGHaj4Kj2rnMo7OcjPdP-31" style="edgeStyle=orthogonalEdgeStyle;rounded=0;orthogonalLoop=1;jettySize=auto;html=1;exitX=0.5;exitY=1;exitDx=0;exitDy=0;" edge="1" parent="1" source="BGHaj4Kj2rnMo7OcjPdP-17" target="BGHaj4Kj2rnMo7OcjPdP-18">
          <mxGeometry relative="1" as="geometry" />
        </mxCell>
        <mxCell id="BGHaj4Kj2rnMo7OcjPdP-17" value="&lt;div class=&quot;O0&quot;&gt;&lt;b&gt;Lookup using Project_Template&lt;/b&gt;&lt;/div&gt;" style="rounded=1;whiteSpace=wrap;html=1;absoluteArcSize=1;arcSize=0;strokeWidth=2;" vertex="1" parent="1">
          <mxGeometry x="40" y="400" width="160" height="50" as="geometry" />
        </mxCell>
        <mxCell id="BGHaj4Kj2rnMo7OcjPdP-32" style="edgeStyle=orthogonalEdgeStyle;rounded=0;orthogonalLoop=1;jettySize=auto;html=1;exitX=0.5;exitY=1;exitDx=0;exitDy=0;" edge="1" parent="1" source="BGHaj4Kj2rnMo7OcjPdP-18" target="BGHaj4Kj2rnMo7OcjPdP-19">
          <mxGeometry relative="1" as="geometry" />
        </mxCell>
        <mxCell id="BGHaj4Kj2rnMo7OcjPdP-18" value="&lt;div class=&quot;O0&quot;&gt;&lt;b&gt;Lookup using View_Template&lt;/b&gt;&lt;/div&gt;" style="rounded=1;whiteSpace=wrap;html=1;absoluteArcSize=1;arcSize=0;strokeWidth=2;" vertex="1" parent="1">
          <mxGeometry x="40" y="480" width="160" height="50" as="geometry" />
        </mxCell>
        <mxCell id="BGHaj4Kj2rnMo7OcjPdP-29" style="edgeStyle=orthogonalEdgeStyle;rounded=0;orthogonalLoop=1;jettySize=auto;html=1;exitX=0.5;exitY=1;exitDx=0;exitDy=0;entryX=0;entryY=0.5;entryDx=0;entryDy=0;" edge="1" parent="1" source="BGHaj4Kj2rnMo7OcjPdP-19" target="BGHaj4Kj2rnMo7OcjPdP-27">
          <mxGeometry relative="1" as="geometry" />
        </mxCell>
        <mxCell id="BGHaj4Kj2rnMo7OcjPdP-19" value="&lt;div class=&quot;O0&quot;&gt;&lt;b&gt;Lookup using Column_Template&lt;/b&gt;&lt;/div&gt;" style="rounded=1;whiteSpace=wrap;html=1;absoluteArcSize=1;arcSize=0;strokeWidth=2;" vertex="1" parent="1">
          <mxGeometry x="40" y="560" width="160" height="50" as="geometry" />
        </mxCell>
        <mxCell id="BGHaj4Kj2rnMo7OcjPdP-33" style="edgeStyle=orthogonalEdgeStyle;rounded=0;orthogonalLoop=1;jettySize=auto;html=1;exitX=0.5;exitY=1;exitDx=0;exitDy=0;entryX=0.5;entryY=0;entryDx=0;entryDy=0;" edge="1" parent="1" source="BGHaj4Kj2rnMo7OcjPdP-20" target="BGHaj4Kj2rnMo7OcjPdP-21">
          <mxGeometry relative="1" as="geometry" />
        </mxCell>
        <mxCell id="BGHaj4Kj2rnMo7OcjPdP-20" value="&lt;div class=&quot;O0&quot;&gt;&lt;b&gt;Lookup using Project_Template_V2&lt;/b&gt;&lt;/div&gt;" style="rounded=1;whiteSpace=wrap;html=1;absoluteArcSize=1;arcSize=0;strokeWidth=2;" vertex="1" parent="1">
          <mxGeometry x="640" y="400" width="160" height="50" as="geometry" />
        </mxCell>
        <mxCell id="BGHaj4Kj2rnMo7OcjPdP-34" style="edgeStyle=orthogonalEdgeStyle;rounded=0;orthogonalLoop=1;jettySize=auto;html=1;exitX=0.5;exitY=1;exitDx=0;exitDy=0;entryX=0.5;entryY=0;entryDx=0;entryDy=0;" edge="1" parent="1" source="BGHaj4Kj2rnMo7OcjPdP-21" target="BGHaj4Kj2rnMo7OcjPdP-22">
          <mxGeometry relative="1" as="geometry" />
        </mxCell>
        <mxCell id="BGHaj4Kj2rnMo7OcjPdP-21" value="&lt;div class=&quot;O0&quot;&gt;&lt;b&gt;Lookup using View_Template_V2&lt;/b&gt;&lt;/div&gt;" style="rounded=1;whiteSpace=wrap;html=1;absoluteArcSize=1;arcSize=0;strokeWidth=2;" vertex="1" parent="1">
          <mxGeometry x="640" y="480" width="160" height="50" as="geometry" />
        </mxCell>
        <mxCell id="BGHaj4Kj2rnMo7OcjPdP-35" style="edgeStyle=orthogonalEdgeStyle;rounded=0;orthogonalLoop=1;jettySize=auto;html=1;exitX=0.5;exitY=1;exitDx=0;exitDy=0;entryX=0.5;entryY=0;entryDx=0;entryDy=0;" edge="1" parent="1" source="BGHaj4Kj2rnMo7OcjPdP-22" target="BGHaj4Kj2rnMo7OcjPdP-23">
          <mxGeometry relative="1" as="geometry" />
        </mxCell>
        <mxCell id="BGHaj4Kj2rnMo7OcjPdP-22" value="&lt;div class=&quot;O0&quot;&gt;&lt;b&gt;Lookup using Column_Template_V2&lt;/b&gt;&lt;/div&gt;" style="rounded=1;whiteSpace=wrap;html=1;absoluteArcSize=1;arcSize=0;strokeWidth=2;" vertex="1" parent="1">
          <mxGeometry x="640" y="560" width="160" height="50" as="geometry" />
        </mxCell>
        <mxCell id="BGHaj4Kj2rnMo7OcjPdP-30" style="edgeStyle=orthogonalEdgeStyle;rounded=0;orthogonalLoop=1;jettySize=auto;html=1;exitX=0.5;exitY=1;exitDx=0;exitDy=0;entryX=1;entryY=0.5;entryDx=0;entryDy=0;" edge="1" parent="1" source="BGHaj4Kj2rnMo7OcjPdP-23" target="BGHaj4Kj2rnMo7OcjPdP-27">
          <mxGeometry relative="1" as="geometry" />
        </mxCell>
        <mxCell id="BGHaj4Kj2rnMo7OcjPdP-23" value="&lt;div class=&quot;O0&quot;&gt;&lt;b&gt;Lookup using Dataset_Template&lt;/b&gt;&lt;/div&gt;" style="rounded=1;whiteSpace=wrap;html=1;absoluteArcSize=1;arcSize=0;strokeWidth=2;" vertex="1" parent="1">
          <mxGeometry x="640" y="640" width="160" height="50" as="geometry" />
        </mxCell>
        <mxCell id="BGHaj4Kj2rnMo7OcjPdP-27" value="&lt;div class=&quot;O0&quot;&gt;&lt;b&gt;Virtual Metadata Layer&lt;/b&gt;&lt;/div&gt;" style="rounded=1;whiteSpace=wrap;html=1;absoluteArcSize=1;arcSize=0;strokeWidth=2;" vertex="1" parent="1">
          <mxGeometry x="240" y="690" width="360" height="50" as="geometry" />
        </mxCell>
        <mxCell id="BGHaj4Kj2rnMo7OcjPdP-36" value="Metadata&lt;br&gt;DataProduct" style="shape=cylinder3;whiteSpace=wrap;html=1;boundedLbl=1;backgroundOutline=1;size=15;" vertex="1" parent="1">
          <mxGeometry x="400" y="480" width="60" height="80" as="geometry" />
        </mxCell>
      </root>
    </mxGraphModel>
  </diagram>
</mxfile>
